<svg xmlns="http://www.w3.org/2000/svg" width="64" height="64" viewBox="0 0 64 64">
  <ellipse cx="32" cy="57.5" rx="19" ry="3.5" fill="#00000040"/>
  <polygon points="15,52 49,52 49,58 15,58" fill="#84868b"/>
  <polyline points="15,54.8 49,54.8" fill="none" stroke="#6f7176" stroke-width="1" stroke-linejoin="round"/>
  <polyline points="24,53.2 24,58" fill="none" stroke="#6f7176" stroke-width="1" stroke-linejoin="round"/>
  <polyline points="33,53.2 33,58" fill="none" stroke="#6f7176" stroke-width="1" stroke-linejoin="round"/>
  <polyline points="42,53.2 42,58" fill="none" stroke="#6f7176" stroke-width="1" stroke-linejoin="round"/>
  <polygon points="16,34 48,34 48,53 16,53" fill="#cbb089"/>
  <polygon points="40,34 48,34 48,53 40,53" fill="#b89e77"/>
  <polygon points="16,34 19,34 19,53 16,53" fill="#4a3623"/>
  <polygon points="45,34 48,34 48,53 45,53" fill="#4a3623"/>
  <polygon points="16,34 48,34 48,37 16,37" fill="#4a3623"/>
  <polygon points="16,43 48,43 48,45.4 16,45.4" fill="#4a3623"/>
  <polygon points="19.4,37.4 22,37.4 19.4,42.6 19,42" fill="#4a3623"/>
  <polygon points="44.6,37.4 42,37.4 44.6,42.6 45,42" fill="#4a3623"/>
  <polygon points="12,34 52,34 32,12" fill="#8a6a2c"/>
  <polygon points="14,33.4 50,33.4 32,13" fill="#b98f3e"/>
  <polyline points="18.6,29.4 45.4,29.4" fill="none" stroke="#8a6a2c" stroke-width="1" stroke-linejoin="round"/>
  <polyline points="23.4,24 40.6,24" fill="none" stroke="#8a6a2c" stroke-width="1" stroke-linejoin="round"/>
  <polyline points="27.6,19 36.4,19" fill="none" stroke="#8a6a2c" stroke-width="1" stroke-linejoin="round"/>
  <polygon points="27.4,15 36.6,15 33.4,11.4 30.6,11.4" fill="#caa04a"/>
  <polygon points="41,25.4 45.4,23.6 45.4,15.4 41.4,17.2" fill="#76787d"/>
  <polygon points="40.8,16.4 45.8,14.4 45.8,12.6 40.8,14.6" fill="#8d8f94"/>
  <circle cx="44.6" cy="11.4" r="1.6" fill="#d9c9a340"/>
  <circle cx="46" cy="8.8" r="1.2" fill="#d9c9a330"/>
  <polygon points="28,42.6 36,42.6 36,58 28,58" fill="#3c2a18"/>
  <polyline points="30.6,43.6 30.6,57" fill="none" stroke="#2a1d0f" stroke-width="0.9" stroke-linejoin="round"/>
  <polyline points="33.4,43.6 33.4,57" fill="none" stroke="#2a1d0f" stroke-width="0.9" stroke-linejoin="round"/>
  <polyline points="28,46 30.2,46" fill="none" stroke="#6f7176" stroke-width="1.1" stroke-linejoin="round"/>
  <polyline points="28,50 30.2,50" fill="none" stroke="#6f7176" stroke-width="1.1" stroke-linejoin="round"/>
  <circle cx="34.6" cy="51" r="0.9" fill="#d9a441"/>
  <polygon points="20,38.4 26.6,38.4 26.6,45 20,45" fill="#4a3623"/>
  <polygon points="21,39.4 25.6,39.4 25.6,44 21,44" fill="#ffd98a"/>
  <polyline points="23.3,39.4 23.3,44" fill="none" stroke="#4a3623" stroke-width="0.8" stroke-linejoin="round"/>
  <polyline points="21,41.7 25.6,41.7" fill="none" stroke="#4a3623" stroke-width="0.8" stroke-linejoin="round"/>
  <polygon points="37.4,38.4 44,38.4 44,45 37.4,45" fill="#4a3623"/>
  <polygon points="38.4,39.4 43,39.4 43,44 38.4,44" fill="#ffd98a"/>
  <polyline points="40.7,39.4 40.7,44" fill="none" stroke="#4a3623" stroke-width="0.8" stroke-linejoin="round"/>
  <polyline points="38.4,41.7 43,41.7" fill="none" stroke="#4a3623" stroke-width="0.8" stroke-linejoin="round"/>
  <polygon points="19.4,47.8 25,47.8 25,49.4 19.4,49.4" fill="#5a4030"/>
  <circle cx="20.4" cy="47" r="0.8" fill="#6fae67"/>
  <circle cx="22.2" cy="47.2" r="0.8" fill="#6fae67"/>
  <circle cx="24" cy="47" r="0.8" fill="#6fae67"/>
  <circle cx="21.3" cy="46.2" r="0.7" fill="#c96a6a"/>
  <circle cx="23.1" cy="46.4" r="0.7" fill="#e8e4c8"/>
</svg>
