<svg xmlns="http://www.w3.org/2000/svg" width="64" height="64" viewBox="0 0 64 64">
  <ellipse cx="32" cy="57.5" rx="16" ry="3.5" fill="#00000040"/>
  <polygon points="18,24 46,24 50,54 40,50 32,55 24,50 14,54" fill="#4a1016"/>
  <polygon points="25,44 31,44 30,56 24,56" fill="#3c1218"/>
  <polygon points="33,44 39,44 40,56 34,56" fill="#3c1218"/>
  <polygon points="23,54 30,54 30,58 23,58" fill="#1c0a0d"/>
  <polygon points="34,54 41,54 41,58 34,58" fill="#1c0a0d"/>
  <polygon points="21,24 43,24 41,46 23,46" fill="#7a2230"/>
  <polygon points="30,24 34,24 34,46 30,46" fill="#d9a441"/>
  <circle cx="20" cy="26" r="5" fill="#8c2a3a"/>
  <circle cx="44" cy="26" r="5" fill="#8c2a3a"/>
  <polygon points="16,23 20,12 24,23" fill="#d9a441"/>
  <polygon points="40,23 44,12 48,23" fill="#d9a441"/>
  <polygon points="25,10 39,10 41,21 23,21" fill="#5d1620"/>
  <polygon points="24,12 12,4 26,18" fill="#d9a441"/>
  <polygon points="40,12 52,4 38,18" fill="#d9a441"/>
  <circle cx="29" cy="16" r="1.6" fill="#ff5d3a"/>
  <circle cx="35" cy="16" r="1.6" fill="#ff5d3a"/>
  <polygon points="44,32 57,24 59,27 46,35" fill="#3a2a1a"/>
  <polygon points="54,16 63,21 60,28 51,24" fill="#9aa1a8"/>
</svg>
