<svg xmlns="http://www.w3.org/2000/svg" width="64" height="64" viewBox="0 0 64 64">
  <ellipse cx="32" cy="57.5" rx="20" ry="3.5" fill="#00000040"/>
  <polygon points="10,26 15,23 18,26.6 21,22.6 24,25 25,58 11,58" fill="#84868b"/>
  <polygon points="10,26 12.6,24.8 13.4,58 10,58" fill="#9a9ca1"/>
  <polyline points="11.6,34 24.4,33.4" fill="none" stroke="#6f7176" stroke-width="1" stroke-linejoin="round"/>
  <polyline points="11.4,42 24.6,41.4" fill="none" stroke="#6f7176" stroke-width="1" stroke-linejoin="round"/>
  <polyline points="11.2,50 24.8,49.4" fill="none" stroke="#6f7176" stroke-width="1" stroke-linejoin="round"/>
  <polyline points="20.6,30 19,38 20.8,45" fill="none" stroke="#5f6165" stroke-width="1" stroke-linejoin="round"/>
  <polygon points="41,37 45.4,33.6 47.6,36.6 51,32.6 52,58 41,58" fill="#76787d"/>
  <polygon points="48.6,33.4 51,32.6 52,58 48.8,58" fill="#66686d"/>
  <polygon points="21.6,45.6 43.6,37.6 46.6,44.6 24.6,52.6" fill="#8d8f94"/>
  <polygon points="21.6,45.6 43.6,37.6 44.6,40 22.6,48" fill="#a3a5aa"/>
  <polyline points="21.6,45.6 43.6,37.6 46.6,44.6 24.6,52.6 21.6,45.6" fill="none" stroke="#5f6165" stroke-width="1.4" stroke-linejoin="round"/>
  <polygon points="43.6,37.6 46.6,44.6 44,45.6 41.8,39.4" fill="#6f7176"/>
  <polygon points="14.6,44 21.4,44 22.4,56 13.6,56" fill="#9a9ca1"/>
  <ellipse cx="18.4" cy="44" rx="3.9" ry="1.5" fill="#aeb1b6"/>
  <polyline points="16.4,46 16,55" fill="none" stroke="#7f8186" stroke-width="0.9" stroke-linejoin="round"/>
  <polyline points="18.6,46 18.4,55" fill="none" stroke="#7f8186" stroke-width="0.9" stroke-linejoin="round"/>
  <polyline points="20.6,46 20.8,55" fill="none" stroke="#7f8186" stroke-width="0.9" stroke-linejoin="round"/>
  <polygon points="27,53.6 31,52.4 32.4,56 28,57.4" fill="#7a7c81"/>
  <polygon points="35,50.6 38.6,49.8 39.6,53.4 35.8,54.2" fill="#6f7176"/>
  <polygon points="44,52.6 47.6,52 48.4,55.4 44.6,56" fill="#66686d"/>
  <circle cx="25.4" cy="56.4" r="1.1" fill="#5f6165"/>
  <circle cx="33.4" cy="57" r="0.9" fill="#66686d"/>
  <circle cx="40.4" cy="56.8" r="1" fill="#5f6165"/>
  <circle cx="47" cy="57.2" r="0.8" fill="#66686d"/>
  <circle cx="13.4" cy="56.2" r="1.8" fill="#557d4a"/>
  <circle cx="15.4" cy="57.4" r="1.4" fill="#6b9a5a"/>
  <circle cx="22" cy="24.4" r="1.5" fill="#557d4a"/>
  <circle cx="45.6" cy="34.4" r="1.3" fill="#557d4a"/>
  <circle cx="46.6" cy="36" r="1" fill="#6b9a5a"/>
  <circle cx="19.6" cy="44.2" r="1.2" fill="#557d4a"/>
  <polygon points="30.4,58 31.4,54.6 32.4,58" fill="#5d8a5a"/>
  <polygon points="42.4,58 43.4,55.4 44.4,58" fill="#5d8a5a"/>
  <polygon points="16.4,33.4 20.4,33.4 20.4,37.4 16.4,37.4" fill="#3e8f83"/>
  <polygon points="17.6,34.6 19.2,34.6 19.2,36.2 17.6,36.2" fill="#2c5f57"/>
</svg>
