<svg xmlns="http://www.w3.org/2000/svg" width="64" height="64" viewBox="0 0 64 64">
  <ellipse cx="32" cy="57.5" rx="12" ry="3.5" fill="#00000040"/>
  <polygon points="29,40 35,40 37.5,58 26.5,58" fill="#5a4030"/>
  <polygon points="33,40 35,40 37.5,58 34.5,58" fill="#4a3526"/>
  <polygon points="24,55 29,52 30,58 23,58" fill="#4a3526"/>
  <polygon points="34,52 40,55 41,58 33,58" fill="#4a3526"/>
  <polyline points="30.5,44 30,56" fill="none" stroke="#3e2c1f" stroke-width="1.2" stroke-linejoin="round"/>
  <polyline points="34,43 34.8,56" fill="none" stroke="#3e2c1f" stroke-width="1.2" stroke-linejoin="round"/>
  <polygon points="32,4 47,22 43,20 52,34 45,32 54,46 10,46 18,32 12,34 20,20 17,22" fill="#245c31"/>
  <polygon points="32,8 43,24 39,22 47,35 40,33 47,43 17,43 24,33 18,35 25,22 21,24" fill="#2f7a3d"/>
  <polygon points="26,14 34,10 38,16 33,20 27,19" fill="#3d9a4c"/>
  <polygon points="18,26 26,20 31,26 25,32 19,31" fill="#3d9a4c"/>
  <polygon points="36,22 44,18 48,25 42,31 36,29" fill="#3d9a4c"/>
  <circle cx="38.5" cy="22" r="1.5" fill="#57a75f"/>
  <circle cx="24.5" cy="20" r="1" fill="#57a75f"/>
  <circle cx="25.5" cy="28.5" r="1" fill="#6fbe72"/>
  <circle cx="32" cy="29.5" r="1" fill="#6fbe72"/>
  <circle cx="36" cy="28" r="1" fill="#57a75f"/>
  <circle cx="37.5" cy="15" r="1.5" fill="#57a75f"/>
  <circle cx="27" cy="31.5" r="1.5" fill="#6fbe72"/>
  <circle cx="18" cy="21.5" r="1" fill="#6fbe72"/>
  <circle cx="30" cy="37.5" r="1" fill="#57a75f"/>
  <circle cx="39.5" cy="33" r="1" fill="#57a75f"/>
  <circle cx="18.5" cy="25.5" r="1.5" fill="#6fbe72"/>
  <circle cx="27" cy="26.5" r="1.5" fill="#57a75f"/>
</svg>
